<svg width="304" height="437" viewBox="0 0 304 437" fill="none" xmlns="http://www.w3.org/2000/svg">
<path d="M177.009 102.855C110.275 91.1439 61.1214 141.103 52.4013 192.739C43.6801 244.38 123.901 417.327 123.901 417.327C123.901 417.327 262.061 282.705 270.782 231.063C279.502 179.428 243.744 114.567 177.009 102.855Z" fill="#5E80B5"/>
<ellipse rx="93.11" ry="86.349" transform="matrix(0.988298 0.152532 -0.146909 0.98915 161.625 205.404)" fill="white"/>
<path d="M129.933 238.905C129.284 241.154 127.946 242.867 125.919 244.045C123.891 245.223 121.814 245.493 119.688 244.856C117.562 244.219 115.96 242.846 114.88 240.737C113.8 238.628 113.584 236.45 114.233 234.201C114.881 231.952 116.219 230.239 118.247 229.061C120.274 227.883 122.351 227.613 124.477 228.25C126.603 228.887 128.206 230.26 129.286 232.368C130.365 234.477 130.581 236.656 129.933 238.905ZM184.881 255.37C184.233 257.619 182.895 259.332 180.867 260.51C178.84 261.688 176.763 261.958 174.637 261.321C172.511 260.684 170.908 259.311 169.829 257.202C168.749 255.093 168.533 252.915 169.182 250.666C169.83 248.417 171.168 246.704 173.195 245.526C175.223 244.348 177.3 244.078 179.426 244.715C181.552 245.352 183.155 246.725 184.234 248.834C185.314 250.942 185.53 253.121 184.881 255.37ZM213.082 187.144L203.505 220.357C203.206 221.395 202.604 222.213 201.698 222.811C200.793 223.409 199.831 223.626 198.812 223.462L132.505 212.191C132.289 214.945 132.118 216.538 131.993 216.971C131.794 217.663 130.904 218.9 129.324 220.681L185.745 237.587C186.808 237.906 187.609 238.592 188.149 239.647C188.689 240.701 188.797 241.791 188.473 242.915C188.148 244.04 187.479 244.896 186.466 245.485C185.452 246.074 184.414 246.209 183.351 245.891L120.552 227.074C119.489 226.755 118.688 226.069 118.148 225.014C117.608 223.96 117.5 222.87 117.824 221.746C117.961 221.27 118.321 220.638 118.904 219.849C119.487 219.061 120.038 218.38 120.559 217.808C121.079 217.236 121.768 216.503 122.625 215.608C123.483 214.714 123.984 214.171 124.128 213.98L128.667 157.339L116.157 153.591C115.094 153.272 114.292 152.586 113.752 151.531C113.212 150.477 113.105 149.387 113.429 148.263C113.753 147.139 114.422 146.282 115.436 145.693C116.45 145.104 117.488 144.969 118.551 145.287L134.251 149.992C134.905 150.188 135.447 150.503 135.877 150.937C136.307 151.371 136.609 151.826 136.783 152.301C136.957 152.776 137.07 153.385 137.122 154.129C137.174 154.873 137.175 155.484 137.126 155.963C137.077 156.441 137.005 157.113 136.911 157.977C136.818 158.842 136.747 159.432 136.701 159.747L210.354 181.816C211.417 182.135 212.219 182.821 212.759 183.876C213.299 184.93 213.406 186.02 213.082 187.144Z" fill="#FFC107"/>
<path d="M176.705 186.687C177.288 187.009 177.542 187.482 177.465 188.107C177.392 188.745 177.05 189.14 176.438 189.291L168.083 191.344L175.61 200.578C175.865 200.903 175.972 201.257 175.932 201.639C175.891 202.022 175.72 202.336 175.418 202.58L172.041 205.157C171.72 205.391 171.363 205.479 170.969 205.42C170.575 205.362 170.246 205.179 169.98 204.872L162.83 196.105L158.059 204.542C157.865 204.885 157.578 205.103 157.199 205.196C157.024 205.239 156.838 205.246 156.642 205.217C155.984 205.114 155.563 204.76 155.379 204.153L145.487 171.564C145.303 170.958 145.465 170.46 145.974 170.071C146.127 169.956 146.291 169.877 146.466 169.834C146.86 169.737 147.229 169.794 147.575 170.003L176.705 186.687Z" fill="white"/>
<path d="M37.3555 20.7832C37.3555 23.3027 36.9102 25.5117 36.0195 27.4102C35.1289 29.3086 33.8516 30.7734 32.1875 31.8047C30.5352 32.8359 28.6367 33.3516 26.4922 33.3516C24.3711 33.3516 22.4785 32.8418 20.8145 31.8223C19.1504 30.8027 17.8613 29.3496 16.9473 27.4629C16.0332 25.5645 15.5703 23.3848 15.5586 20.9238V19.6582C15.5586 17.1387 16.0098 14.9238 16.9121 13.0137C17.8262 11.0918 19.1094 9.62109 20.7617 8.60156C22.4258 7.57031 24.3242 7.05469 26.457 7.05469C28.5898 7.05469 30.4824 7.57031 32.1348 8.60156C33.7988 9.62109 35.082 11.0918 35.9844 13.0137C36.8984 14.9238 37.3555 17.1328 37.3555 19.6406V20.7832ZM32.0117 19.623C32.0117 16.9395 31.5312 14.9004 30.5703 13.5059C29.6094 12.1113 28.2383 11.4141 26.457 11.4141C24.6875 11.4141 23.3223 12.1055 22.3613 13.4883C21.4004 14.8594 20.9141 16.875 20.9023 19.5352V20.7832C20.9023 23.3965 21.3828 25.4238 22.3438 26.8652C23.3047 28.3066 24.6875 29.0273 26.4922 29.0273C28.2617 29.0273 29.6211 28.3359 30.5703 26.9531C31.5195 25.5586 32 23.5312 32.0117 20.8711V19.623ZM56.5859 22.541H46.4609V33H41.1875V7.40625H57.8516V11.6777H46.4609V18.2871H56.5859V22.541ZM76.3086 21.9082H66.1836V28.7637H78.0664V33H60.9102V7.40625H78.0312V11.6777H66.1836V17.7773H76.3086V21.9082ZM90.6348 23.6309H86.4336V33H81.1602V7.40625H90.6699C93.6934 7.40625 96.0254 8.08008 97.666 9.42773C99.3066 10.7754 100.127 12.6797 100.127 15.1406C100.127 16.8867 99.7461 18.3457 98.9844 19.5176C98.2344 20.6777 97.0918 21.6035 95.5566 22.2949L101.094 32.7539V33H95.4336L90.6348 23.6309ZM86.4336 19.3594H90.6875C92.0117 19.3594 93.0371 19.0254 93.7637 18.3574C94.4902 17.6777 94.8535 16.7461 94.8535 15.5625C94.8535 14.3555 94.5078 13.4062 93.8164 12.7148C93.1367 12.0234 92.0879 11.6777 90.6699 11.6777H86.4336V19.3594ZM122.539 11.6777H114.699V33H109.426V11.6777H101.691V7.40625H122.539V11.6777ZM137.902 27.7266H128.656L126.898 33H121.291L130.818 7.40625H135.705L145.285 33H139.678L137.902 27.7266ZM130.08 23.4551H136.479L133.262 13.875L130.08 23.4551ZM160.947 26.2852C160.947 25.2891 160.596 24.5273 159.893 24C159.189 23.4609 157.924 22.8984 156.096 22.3125C154.268 21.7148 152.82 21.1289 151.754 20.5547C148.848 18.9844 147.395 16.8691 147.395 14.209C147.395 12.8262 147.781 11.5957 148.555 10.5176C149.34 9.42773 150.459 8.57813 151.912 7.96875C153.377 7.35937 155.018 7.05469 156.834 7.05469C158.662 7.05469 160.291 7.38867 161.721 8.05664C163.15 8.71289 164.258 9.64453 165.043 10.8516C165.84 12.0586 166.238 13.4297 166.238 14.9648H160.965C160.965 13.793 160.596 12.8848 159.857 12.2402C159.119 11.584 158.082 11.2559 156.746 11.2559C155.457 11.2559 154.455 11.5313 153.74 12.082C153.025 12.6211 152.668 13.3359 152.668 14.2266C152.668 15.0586 153.084 15.7559 153.916 16.3184C154.76 16.8809 155.996 17.4082 157.625 17.9004C160.625 18.8027 162.811 19.9219 164.182 21.2578C165.553 22.5938 166.238 24.2578 166.238 26.25C166.238 28.4648 165.4 30.2051 163.725 31.4707C162.049 32.7246 159.793 33.3516 156.957 33.3516C154.988 33.3516 153.195 32.9941 151.578 32.2793C149.961 31.5527 148.725 30.5625 147.869 29.3086C147.025 28.0547 146.604 26.6016 146.604 24.9492H151.895C151.895 27.7734 153.582 29.1855 156.957 29.1855C158.211 29.1855 159.189 28.9336 159.893 28.4297C160.596 27.9141 160.947 27.1992 160.947 26.2852ZM199.039 29.7656C198.09 30.9023 196.748 31.7871 195.014 32.4199C193.279 33.041 191.357 33.3516 189.248 33.3516C187.033 33.3516 185.088 32.8711 183.412 31.9102C181.748 30.9375 180.459 29.5312 179.545 27.6914C178.643 25.8516 178.18 23.6895 178.156 21.2051V19.4648C178.156 16.9102 178.584 14.7012 179.439 12.8379C180.307 10.9629 181.549 9.5332 183.166 8.54883C184.795 7.55273 186.699 7.05469 188.879 7.05469C191.914 7.05469 194.287 7.78125 195.998 9.23438C197.709 10.6758 198.723 12.7793 199.039 15.5449H193.906C193.672 14.0801 193.15 13.0078 192.342 12.3281C191.545 11.6484 190.443 11.3086 189.037 11.3086C187.244 11.3086 185.879 11.9824 184.941 13.3301C184.004 14.6777 183.529 16.6816 183.518 19.3418V20.9766C183.518 23.6602 184.027 25.6875 185.047 27.0586C186.066 28.4297 187.561 29.1152 189.529 29.1152C191.51 29.1152 192.922 28.6934 193.766 27.8496V23.4375H188.967V19.5527H199.039V29.7656ZM212.803 23.6309H208.602V33H203.328V7.40625H212.838C215.861 7.40625 218.193 8.08008 219.834 9.42773C221.475 10.7754 222.295 12.6797 222.295 15.1406C222.295 16.8867 221.914 18.3457 221.152 19.5176C220.402 20.6777 219.26 21.6035 217.725 22.2949L223.262 32.7539V33H217.602L212.803 23.6309ZM208.602 19.3594H212.855C214.18 19.3594 215.205 19.0254 215.932 18.3574C216.658 17.6777 217.021 16.7461 217.021 15.5625C217.021 14.3555 216.676 13.4062 215.984 12.7148C215.305 12.0234 214.256 11.6777 212.838 11.6777H208.602V19.3594ZM241.719 21.9082H231.594V28.7637H243.477V33H226.32V7.40625H243.441V11.6777H231.594V17.7773H241.719V21.9082ZM261.969 21.9082H251.844V28.7637H263.727V33H246.57V7.40625H263.691V11.6777H251.844V17.7773H261.969V21.9082ZM287.633 33H282.359L272.094 16.1602V33H266.82V7.40625H272.094L282.377 24.2812V7.40625H287.633V33Z" fill="white"/>
</svg>
