<svg height="511pt" viewBox="-28 0 511 511.99965" width="511pt" xmlns="http://www.w3.org/2000/svg"><path d="m424.261719 113.527344c-62.714844-108.617188-201.640625-145.796875-310.226563-82.984375-108.808594 62.9375-145.765625 201.105469-82.917968 309.964843 33.648437 58.277344 89.230468 95.972657 150.296874 108.710938 5.882813 1.226562 9.667969 6.96875 8.460938 12.855469l-8.839844 43.136719c-.976562 4.765624 4.132813 8.449218 8.347656 6.019531l151.796876-87.640625c108.5625-62.679688 145.757812-201.5 83.082031-310.0625zm0 0" fill="#54a0ff"/><path d="m220.78125 462.074219c1.207031-5.886719-2.578125-11.628907-8.460938-12.855469-61.066406-12.738281-116.648437-50.4375-150.292968-108.710938-62.851563-108.859374-25.894532-247.027343 82.914062-309.964843 31.039063-17.953125 64.558594-27.726563 98.070313-30.007813-43.519531-2.984375-88.371094 6.519532-128.976563 30.007813-108.808594 62.9375-145.765625 201.105469-82.917968 309.964843 33.648437 58.277344 89.230468 95.972657 150.296874 108.710938 5.882813 1.226562 9.667969 6.96875 8.460938 12.855469l-8.839844 43.136719c-.976562 4.765624 4.132813 8.449218 8.347656 6.019531l24.1875-13.964844zm0 0" fill="#338def"/><path d="m361.714844 139.785156c.757812-.871094-.132813-2.179687-1.21875-1.796875l-33.007813 11.617188c-2.082031.734375-4.378906.140625-5.910156-1.457031-11.355469-11.835938-28.074219-18.476563-46.269531-15.878907-19.675782 2.808594-36.296875 17.042969-42.648438 35.875-3.242187 9.601563-3.488281 18.828125-1.757812 27.34375.425781 2.101563-1.199219 4.109375-3.339844 3.957031-66.265625-4.699218-98.429688-44.371093-108.972656-60.726562-1.558594-2.425781-5.269532-1.621094-5.792969 1.210938-6.195313 33.484374.871094 54.066406 4.832031 62.320312.972656 2.023438-.382812 4.359375-2.621094 4.527344l-12.605468.921875c-2.234375.160156-3.648438 2.574219-2.648438 4.578125 10.820313 21.617187 26.367188 34.082031 35.316406 39.894531 2.367188 1.535156 1.632813 5.160156-1.132812 5.726563l-6.851562 1.40625c-2.566407.527343-3.417969 3.765624-1.453126 5.503906 22.199219 19.613281 42.84375 24.804687 53.265626 26.152344 2.753906.355468 3.808593 3.84375 1.65625 5.597656-17.386719 14.183594-45.183594 18.726562-62.457032 20.171875-3.414062.285156-3.988281 5.074219-.75 6.195312 37.878906 13.074219 69.207032 14.746094 95.007813 9.566407l-.003907.003906c.015626-.003906.03125-.007813.046876-.011719 10.878906-2.191406 20.765624-5.605469 29.75-9.890625 93.804687-38.800781 95.09375-121.625 94.320312-138.6875-.089844-1.960938.875-3.820312 2.519531-4.890625l17.105469-11.152344c.871094-.570312.570312-1.914062-.460938-2.054687l-12.722656-1.746094c-.882812-.121094-1.28125-1.175781-.695312-1.847656zm0 0" fill="#e4eaf8"/><g fill="#c7d2e5"><path d="m211.460938 296.558594c2.152343-1.753906 1.101562-5.242188-1.65625-5.597656-10.421876-1.347657-31.066407-6.535157-53.265626-26.152344-1.964843-1.738282-1.113281-4.976563 1.457032-5.503906l6.851562-1.402344c2.765625-.570313 3.5-4.195313 1.132813-5.730469-8.953125-5.8125-24.5-18.277344-35.316407-39.894531-1.003906-2.003906.410157-4.417969 2.644532-4.578125l12.605468-.921875c2.242188-.167969 3.59375-2.503906 2.625-4.527344-2.867187-5.96875-7.351562-18.386719-7.273437-37.464844-9.242187-8.144531-17.035156-17.320312-22.671875-26.066406-1.5625-2.425781-5.273438-1.621094-5.796875 1.210938-3.683594 19.921874-3.964844 43.992187 4.832031 62.320312.9375 1.953125-.351562 4.359375-2.621094 4.527344l-11.800781.863281c-1.027343.074219-1.757812.121094-2.566406.785156-1.097656.894531-1.578125 2.464844-.882813 3.851563 8.398438 16.785156 21.074219 30.648437 35.3125 39.894531 2.367188 1.539063 1.632813 5.160156-1.128906 5.730469-3.875.792968-1.554687.320312-6.855468 1.40625-2.527344.515625-3.4375 3.746094-1.453126 5.5 14.921876 13.1875 33.765626 23.632812 53.265626 26.152344.035156.007812.066406.015624.101562.023437 2.71875.4375 3.644531 3.871094 1.554688 5.578125-16.089844 13.125-41.6875 18.433594-62.457032 20.171875-3.414062.285156-3.988281 5.070313-.75 6.191406 8.667969 2.992188 16.984375 5.378907 24.980469 7.234375 18.632813-3.488281 52.972656-20.417968 69.132813-33.601562zm0 0"/><path d="m230.902344 195.488281c.425781 2.101563-1.199219 4.109375-3.339844 3.957031 4.457031 1.101563 10.015625.847657 15.734375.460938 9.46875-.632812 17.007813-8.226562 17.53125-17.703125 1.234375-22.394531 16.703125-41.78125 37.699219-48.210937-39.070313-11.832032-75.445313 22.980468-67.625 61.496093zm0 0"/></g></svg>